<svg width="183" height="40" viewBox="0 0 183 40" fill="none" xmlns="http://www.w3.org/2000/svg">
<path d="M48.416 14.92V11.24H64.416V14.92H58.336V33H54.496V14.92H48.416ZM76.4108 33V30.856C75.4294 31.7093 74.5121 32.3387 73.6588 32.744C72.8054 33.128 71.9414 33.32 71.0668 33.32C69.6161 33.32 68.4961 32.8293 67.7068 31.848C66.9174 30.8453 66.5228 29.448 66.5228 27.656V16.776H70.2028V27.208C70.2028 29 70.8641 29.896 72.1868 29.896C72.7201 29.896 73.2961 29.768 73.9148 29.512C74.5548 29.256 75.3228 28.7653 76.2188 28.04V16.776H79.8988V33H76.4108ZM94.7255 32.456C94.1708 32.712 93.5308 32.9147 92.8055 33.064C92.0802 33.2347 91.3442 33.32 90.5975 33.32C89.3602 33.32 88.3682 33.064 87.6215 32.552C86.8748 32.04 86.3308 31.3253 85.9895 30.408C85.6695 29.4907 85.5095 28.4453 85.5095 27.272V19.976H82.8855V16.776H85.5095V12.552H89.1895V16.776H94.2455V19.976H89.1895V27.272C89.1895 28.2533 89.3708 28.936 89.7335 29.32C90.1175 29.6827 90.6615 29.864 91.3655 29.864C91.7068 29.864 92.0695 29.832 92.4535 29.768C92.8588 29.6827 93.3068 29.544 93.7975 29.352L94.7255 32.456ZM110.964 23.912V25.832C110.964 28.0933 110.346 29.9067 109.108 31.272C107.871 32.6373 106.122 33.32 103.86 33.32C101.599 33.32 99.8496 32.6373 98.6123 31.272C97.3749 29.9067 96.7563 28.0933 96.7563 25.832V23.912C96.7563 21.6507 97.3643 19.848 98.5803 18.504C99.8176 17.1387 101.578 16.456 103.86 16.456C106.143 16.456 107.892 17.1387 109.108 18.504C110.346 19.848 110.964 21.6507 110.964 23.912ZM107.188 23.912C107.188 22.6107 106.9 21.5973 106.324 20.872C105.748 20.1253 104.927 19.752 103.86 19.752C102.794 19.752 101.972 20.1253 101.396 20.872C100.82 21.5973 100.532 22.6107 100.532 23.912V25.832C100.532 27.1333 100.82 28.1573 101.396 28.904C101.972 29.6507 102.794 30.024 103.86 30.024C104.927 30.024 105.748 29.6507 106.324 28.904C106.9 28.1573 107.188 27.1333 107.188 25.832V23.912ZM124.243 20.136C123.24 20.136 122.28 20.296 121.363 20.616C120.467 20.9147 119.603 21.4053 118.771 22.088V33H115.091V16.776H118.579V19.272C119.667 18.248 120.637 17.5227 121.491 17.096C122.344 16.6693 123.261 16.456 124.243 16.456V20.136ZM139.914 33V23.816H131.786V33H127.946V11.24H131.786V20.136H139.914V11.24H143.753V33H139.914ZM158.942 33V30.856C157.961 31.7093 157.043 32.3387 156.19 32.744C155.337 33.128 154.473 33.32 153.598 33.32C152.147 33.32 151.027 32.8293 150.238 31.848C149.449 30.8453 149.054 29.448 149.054 27.656V16.776H152.734V27.208C152.734 29 153.395 29.896 154.718 29.896C155.251 29.896 155.827 29.768 156.446 29.512C157.086 29.256 157.854 28.7653 158.75 28.04V16.776H162.43V33H158.942ZM181.161 25.736C181.161 28.0613 180.585 29.9067 179.433 31.272C178.281 32.6373 176.595 33.32 174.377 33.32C172.073 33.32 169.737 32.68 167.369 31.4V9.32H171.049V18.92C172.03 17.9387 172.873 17.288 173.577 16.968C174.281 16.6267 175.006 16.456 175.753 16.456C177.459 16.456 178.782 17.1173 179.721 18.44C180.681 19.7627 181.161 21.6187 181.161 24.008V25.736ZM174.761 19.88C174.249 19.88 173.705 20.0293 173.129 20.328C172.574 20.6267 171.881 21.2133 171.049 22.088V29.352C171.625 29.5867 172.147 29.7573 172.617 29.864C173.107 29.9707 173.587 30.024 174.057 30.024C175.251 30.024 176.105 29.64 176.617 28.872C177.129 28.104 177.385 27.0587 177.385 25.736V24.008C177.385 22.5787 177.15 21.5333 176.681 20.872C176.233 20.2107 175.593 19.88 174.761 19.88Z" fill="black"/>
<rect x="13.2305" width="13.8462" height="40" rx="6.92308" fill="#ACACAC"/>
<rect x="40" y="13.2305" width="13.5385" height="40" rx="6.76923" transform="rotate(90 40 13.2305)" fill="#ACACAC"/>
<path d="M12.439 12.9008C16.0017 13.4086 18.3127 16.0067 19.9394 18.8009C20.8396 20.3738 21.5988 22.0496 22.7784 23.3906C23.6539 24.3915 24.6795 25.2316 25.8056 25.9763C26.5572 26.4691 27.3533 26.9071 28.351 27.0489C27.8057 27.1283 27.2744 27.101 26.7782 27.0085C25.3009 26.704 24.0355 26.0414 22.8805 25.2421C21.7313 24.439 20.7936 23.3528 20.0653 22.1411C19.3534 20.9655 18.754 19.689 18.056 18.525C16.661 16.1907 14.9678 14.1253 12.439 12.9008Z" fill="#2260FF"/>
<path d="M20.8966 18.6357C20.8966 18.6357 16.6705 14.9168 18.6382 9.92569C20.2601 5.81149 22.5705 5.02096 22.4548 1.75049C24.1287 3.22907 27.1673 7.0762 25.7635 11.6299C24.3902 16.0851 20.8966 18.6357 20.8966 18.6357Z" fill="#2260FF"/>
<path d="M22.4548 1.75049C24.4833 4.22523 24.5131 7.2442 23.5145 10.2439C22.6257 13.0629 21.053 15.539 20.6881 18.4869C20.6446 18.2312 20.5592 17.8947 20.5534 17.6311C20.5323 17.173 20.5674 16.6987 20.6323 16.2425C20.9505 14.0723 21.9134 11.9972 22.5689 9.95455C23.5582 7.00331 23.6679 4.58351 22.4548 1.75049Z" fill="#ACACAC"/>
<path d="M19.5961 21.9793C19.5961 21.9793 15.316 15.3002 10.4619 17.428C6.46074 19.182 5.81732 20.6664 1.61538 19.6357C3.13687 21.2272 6.53746 24.7895 11.687 24.2494C16.2738 23.7683 19.5961 21.9793 19.5961 21.9793Z" fill="#2260FF"/>
<path d="M1.54645 19.6974C3.72043 20.911 6.29 21.1479 8.66223 20.579C9.07898 20.5002 9.58792 20.3238 9.99569 20.2068C13.1579 19.0925 17.1624 19.5229 19.5895 21.9838C16.842 20.6722 13.5769 20.495 10.7074 21.4173C10.5688 21.4607 10.285 21.5439 10.1445 21.5831C10.0344 21.614 9.49735 21.7665 9.3985 21.7913C9.04877 21.8535 8.67604 21.9315 8.32453 21.9773C8.112 21.988 7.59731 22.044 7.38942 22.0445C7.23447 22.0409 6.91825 22.035 6.76289 22.0311C4.83996 21.938 2.81102 21.1898 1.54645 19.6974Z" fill="#ACACAC"/>
</svg>
